<svg width="16" height="20" viewBox="0 0 16 20" fill="none" xmlns="http://www.w3.org/2000/svg">
<path d="M13.8335 0H2.22925C1.28417 0 0.454346 0.777476 0.454346 1.69775V18.8639C0.454346 19.172 0.540082 19.4287 0.67826 19.6271C0.843508 19.8642 1.10958 20.0001 1.3949 20C1.66465 20 1.95186 19.8799 2.21708 19.6534L7.40881 15.2453C7.56916 15.1084 7.79948 15.0299 8.03896 15.0299C8.27835 15.0299 8.5082 15.1084 8.66902 15.2457L13.8434 19.6527C14.1096 19.8799 14.377 20.0001 14.6462 20.0001C15.1016 20.0001 15.5455 19.6488 15.5455 18.864V1.69775C15.5455 0.777476 14.7786 0 13.8335 0Z" fill="#E72727"/>
</svg>
