<svg width="18" height="18" viewBox="0 0 18 18" fill="none" xmlns="http://www.w3.org/2000/svg">
<mask id="mask0_1_73" style="mask-type:alpha" maskUnits="userSpaceOnUse" x="0" y="0" width="18" height="18">
<path fill-rule="evenodd" clip-rule="evenodd" d="M17.7907 7.36364H9.2093V10.8409H14.1488C13.6884 13.05 11.7628 14.3182 9.2093 14.3182C6.19535 14.3182 3.76744 11.9455 3.76744 9C3.76744 6.05455 6.19535 3.68182 9.2093 3.68182C10.507 3.68182 11.6791 4.13182 12.6 4.86818L15.2791 2.25C13.6465 0.859091 11.5535 0 9.2093 0C4.10233 0 0 4.00909 0 9C0 13.9909 4.10233 18 9.2093 18C13.814 18 18 14.7273 18 9C18 8.46818 17.9163 7.89545 17.7907 7.36364Z" fill="white"/>
</mask>
<g mask="url(#mask0_1_73)">
<path d="M-0.837402 14.3182V3.68182L6.27888 9.00001L-0.837402 14.3182Z" fill="#FBBC05"/>
</g>
<mask id="mask1_1_73" style="mask-type:alpha" maskUnits="userSpaceOnUse" x="0" y="0" width="18" height="18">
<path fill-rule="evenodd" clip-rule="evenodd" d="M17.7907 7.36364H9.2093V10.8409H14.1488C13.6884 13.05 11.7628 14.3182 9.2093 14.3182C6.19535 14.3182 3.76744 11.9455 3.76744 9C3.76744 6.05455 6.19535 3.68182 9.2093 3.68182C10.507 3.68182 11.6791 4.13182 12.6 4.86818L15.2791 2.25C13.6465 0.859091 11.5535 0 9.2093 0C4.10233 0 0 4.00909 0 9C0 13.9909 4.10233 18 9.2093 18C13.814 18 18 14.7273 18 9C18 8.46818 17.9163 7.89545 17.7907 7.36364Z" fill="white"/>
</mask>
<g mask="url(#mask1_1_73)">
<path d="M-0.837402 3.68182L6.27888 9.00001L9.20911 6.50455L19.2556 4.9091V-0.818176H-0.837402V3.68182Z" fill="#EA4335"/>
</g>
<mask id="mask2_1_73" style="mask-type:alpha" maskUnits="userSpaceOnUse" x="0" y="0" width="18" height="18">
<path fill-rule="evenodd" clip-rule="evenodd" d="M17.7907 7.36364H9.2093V10.8409H14.1488C13.6884 13.05 11.7628 14.3182 9.2093 14.3182C6.19535 14.3182 3.76744 11.9455 3.76744 9C3.76744 6.05455 6.19535 3.68182 9.2093 3.68182C10.507 3.68182 11.6791 4.13182 12.6 4.86818L15.2791 2.25C13.6465 0.859091 11.5535 0 9.2093 0C4.10233 0 0 4.00909 0 9C0 13.9909 4.10233 18 9.2093 18C13.814 18 18 14.7273 18 9C18 8.46818 17.9163 7.89545 17.7907 7.36364Z" fill="white"/>
</mask>
<g mask="url(#mask2_1_73)">
<path d="M-0.837402 14.3182L11.7207 4.9091L15.0277 5.31819L19.2556 -0.818176V18.8182H-0.837402V14.3182Z" fill="#34A853"/>
</g>
<mask id="mask3_1_73" style="mask-type:alpha" maskUnits="userSpaceOnUse" x="0" y="0" width="18" height="18">
<path fill-rule="evenodd" clip-rule="evenodd" d="M17.7907 7.36364H9.2093V10.8409H14.1488C13.6884 13.05 11.7628 14.3182 9.2093 14.3182C6.19535 14.3182 3.76744 11.9455 3.76744 9C3.76744 6.05455 6.19535 3.68182 9.2093 3.68182C10.507 3.68182 11.6791 4.13182 12.6 4.86818L15.2791 2.25C13.6465 0.859091 11.5535 0 9.2093 0C4.10233 0 0 4.00909 0 9C0 13.9909 4.10233 18 9.2093 18C13.814 18 18 14.7273 18 9C18 8.46818 17.9163 7.89545 17.7907 7.36364Z" fill="white"/>
</mask>
<g mask="url(#mask3_1_73)">
<path d="M19.2557 18.8182L6.27891 9.00001L4.60449 7.77273L19.2557 3.68182V18.8182Z" fill="#4285F4"/>
</g>
</svg>
