<svg width="14" height="19" viewBox="0 0 14 19" fill="none" xmlns="http://www.w3.org/2000/svg">
<path d="M3.55577 14.0582L3.55576 14.0582C1.48805 11.169 0.5 8.73118 0.5 6.79189C0.5 3.31454 3.27754 0.5 6.67202 0.5C10.0664 0.5 12.844 3.31454 12.8441 6.79186C12.8441 8.84579 11.8521 11.3191 9.78798 14.1583C8.28006 16.2323 6.79235 17.6717 6.73917 17.7229L6.73911 17.723C6.72029 17.7411 6.69696 17.75 6.67213 17.75C6.64645 17.75 6.62249 17.7405 6.60355 17.7215C6.54906 17.6667 5.06292 16.1641 3.55577 14.0582ZM2.91015 6.46218C2.91015 8.53691 4.59725 10.2241 6.67202 10.2241C8.74671 10.2241 10.4339 8.53692 10.4339 6.46218C10.4339 4.38745 8.74675 2.70031 6.67202 2.70031C4.59729 2.70031 2.91015 4.38745 2.91015 6.46218Z" fill="black" stroke="black"/>
</svg>
