<svg width="20" height="20" viewBox="0 0 20 20" fill="none" xmlns="http://www.w3.org/2000/svg">
<path fill-rule="evenodd" clip-rule="evenodd" d="M9.80158 1.96037C8.2304 1.96037 6.95671 3.23407 6.95671 4.80525C6.95671 6.37643 8.2304 7.65012 9.80158 7.65012C11.3728 7.65012 12.6465 6.37643 12.6465 4.80525C12.6465 3.23407 11.3728 1.96037 9.80158 1.96037ZM4.99634 4.80525C4.99634 2.15138 7.14772 0 9.80158 0C12.4554 0 14.6068 2.15138 14.6068 4.80525C14.6068 7.45911 12.4554 9.61049 9.80158 9.61049C7.14772 9.61049 4.99634 7.45911 4.99634 4.80525Z" fill="black"/>
<path fill-rule="evenodd" clip-rule="evenodd" d="M7.36889 13.1246C4.38178 13.1246 1.96037 15.546 1.96037 18.5331V18.6224C1.96037 19.1638 1.52153 19.6026 0.980186 19.6026C0.438844 19.6026 0 19.1638 0 18.6224V18.5331C0 14.4633 3.2991 11.1642 7.36889 11.1642H12.2348C16.3046 11.1642 19.6037 14.4633 19.6037 18.5331V18.6224C19.6037 19.1638 19.1649 19.6026 18.6235 19.6026C18.0822 19.6026 17.6434 19.1638 17.6434 18.6224V18.5331C17.6434 15.546 15.222 13.1246 12.2348 13.1246H7.36889Z" fill="black"/>
</svg>
