<svg width="20" height="22" viewBox="0 0 20 22" fill="none" xmlns="http://www.w3.org/2000/svg">
<path fill-rule="evenodd" clip-rule="evenodd" d="M15.0991 5.10101C14.829 2.51574 12.6325 0.500045 9.96286 0.500045C8.59268 0.494308 7.27355 1.03312 6.30037 1.99736C5.45562 2.83436 4.93193 3.93207 4.80842 5.10101H4.80758C2.93711 5.10101 1.36561 6.46723 0.924112 8.83943L0.125183 15.003C-0.554873 19.5161 1.5675 21.4999 5.72118 21.4999H14.2233C18.0645 21.4999 20.3604 19.2638 19.889 15.2506L19.0642 8.88074C18.5354 6.47903 17.0044 5.10101 15.1742 5.10101H15.0991ZM13.5594 5.10101C13.2985 3.35757 11.7873 2.02016 9.95965 2.02016C8.99253 2.01611 8.06364 2.39553 7.37835 3.07452C6.82197 3.62579 6.46338 4.33769 6.34817 5.10101H13.5594ZM4.80751 6.62111H15.1742C16.2475 6.62111 17.1904 7.4698 17.5606 9.14137L18.3413 15.1971C18.806 18.419 17.2593 19.9798 14.2233 19.9798H5.72112C2.43357 19.9798 1.10683 18.7396 1.63815 15.2127L2.43275 9.0749C2.73638 7.44978 3.68956 6.62111 4.80751 6.62111ZM12.9834 9.44222C13.4053 9.44222 13.7473 9.78251 13.7473 10.2023C13.7473 10.5871 13.4599 10.9051 13.0871 10.9554L12.9834 10.9623H12.9368C12.5149 10.9623 12.1729 10.6221 12.1729 10.2023C12.1729 9.81749 12.4603 9.49949 12.8331 9.44916L12.9368 9.44222H12.9834ZM7.80897 10.2023C7.80897 9.78251 7.46698 9.44222 7.04511 9.44222H6.9985L6.89484 9.44916C6.522 9.49949 6.23463 9.81749 6.23463 10.2023C6.23463 10.6221 6.57663 10.9623 6.9985 10.9623H7.04511L7.14876 10.9554C7.5216 10.9051 7.80897 10.5871 7.80897 10.2023Z" fill="#131313"/>
</svg>
