<svg width="20" height="21" viewBox="0 0 20 21" fill="none" xmlns="http://www.w3.org/2000/svg">
<path fill-rule="evenodd" clip-rule="evenodd" d="M18.9275 4.27909C18.6931 3.99779 18.3996 3.77155 18.0679 3.61644C17.7363 3.46133 17.3745 3.38115 17.0083 3.38159H3.535L3.5 3.08909C3.42837 2.48111 3.13615 1.92054 2.67874 1.51366C2.22133 1.10678 1.63052 0.881877 1.01833 0.881592H0.833333C0.61232 0.881592 0.400358 0.969389 0.244078 1.12567C0.0877974 1.28195 0 1.49391 0 1.71493C0 1.93594 0.0877974 2.1479 0.244078 2.30418C0.400358 2.46046 0.61232 2.54826 0.833333 2.54826H1.01833C1.22244 2.54829 1.41945 2.62322 1.57198 2.75885C1.72451 2.89449 1.82195 3.08138 1.84583 3.28409L2.9925 13.0341C3.11154 14.0481 3.59873 14.9831 4.36159 15.6616C5.12445 16.3401 6.10988 16.7149 7.13083 16.7149H15.8333C16.0543 16.7149 16.2663 16.6271 16.4226 16.4708C16.5789 16.3146 16.6667 16.1026 16.6667 15.8816C16.6667 15.6606 16.5789 15.4486 16.4226 15.2923C16.2663 15.1361 16.0543 15.0483 15.8333 15.0483H7.13083C6.61505 15.0468 6.11233 14.8859 5.69161 14.5875C5.27089 14.2891 4.95276 13.8679 4.78083 13.3816H14.7142C15.6911 13.3817 16.6369 13.0385 17.3865 12.412C18.1361 11.7855 18.6417 10.9155 18.815 9.95409L19.4692 6.32576C19.5345 5.96576 19.5198 5.59581 19.4262 5.24212C19.3326 4.88843 19.1623 4.55966 18.9275 4.27909ZM17.8333 6.02993L17.1783 9.65826C17.0743 10.2358 16.7704 10.7583 16.3199 11.1343C15.8694 11.5103 15.301 11.7158 14.7142 11.7149H4.51583L3.73167 5.04826H17.0083C17.1307 5.04753 17.2518 5.07378 17.3629 5.12514C17.4741 5.1765 17.5725 5.25171 17.6513 5.34543C17.73 5.43915 17.7872 5.54907 17.8186 5.66737C17.8501 5.78568 17.8551 5.90946 17.8333 6.02993ZM5.83333 20.8816C6.75381 20.8816 7.5 20.1354 7.5 19.2149C7.5 18.2945 6.75381 17.5483 5.83333 17.5483C4.91286 17.5483 4.16667 18.2945 4.16667 19.2149C4.16667 20.1354 4.91286 20.8816 5.83333 20.8816ZM15.8333 19.2149C15.8333 20.1354 15.0871 20.8816 14.1667 20.8816C13.2462 20.8816 12.5 20.1354 12.5 19.2149C12.5 18.2945 13.2462 17.5483 14.1667 17.5483C15.0871 17.5483 15.8333 18.2945 15.8333 19.2149Z" fill="#131313"/>
</svg>
