<svg width="20" height="21" viewBox="0 0 20 21" fill="none" xmlns="http://www.w3.org/2000/svg">
<path d="M6.79688 9.84045H2.57812C1.15652 9.84045 0 8.68393 0 7.26233V3.04358C0 1.62198 1.15652 0.465454 2.57812 0.465454H6.79688C8.21848 0.465454 9.375 1.62198 9.375 3.04358V7.26233C9.375 8.68393 8.21848 9.84045 6.79688 9.84045ZM2.57812 1.71545C1.84578 1.71545 1.25 2.31124 1.25 3.04358V7.26233C1.25 7.99467 1.84578 8.59045 2.57812 8.59045H6.79688C7.52922 8.59045 8.125 7.99467 8.125 7.26233V3.04358C8.125 2.31124 7.52922 1.71545 6.79688 1.71545H2.57812Z" fill="#131313"/>
<path d="M17.1719 9.84045H12.9531C11.5315 9.84045 10.375 8.68393 10.375 7.26233V3.04358C10.375 1.62198 11.5315 0.465454 12.9531 0.465454H17.1719C18.5935 0.465454 19.75 1.62198 19.75 3.04358V7.26233C19.75 8.68393 18.5935 9.84045 17.1719 9.84045ZM12.9531 1.71545C12.2208 1.71545 11.625 2.31124 11.625 3.04358V7.26233C11.625 7.99467 12.2208 8.59045 12.9531 8.59045H17.1719C17.9042 8.59045 18.5 7.99467 18.5 7.26233V3.04358C18.5 2.31124 17.9042 1.71545 17.1719 1.71545H12.9531Z" fill="#131313"/>
<path d="M15.0625 20.2155C12.4778 20.2155 10.375 18.1126 10.375 15.528C10.375 12.9433 12.4778 10.8405 15.0625 10.8405C17.6472 10.8405 19.75 12.9433 19.75 15.528C19.75 18.1126 17.6472 20.2155 15.0625 20.2155ZM15.0625 12.0905C13.1671 12.0905 11.625 13.6325 11.625 15.528C11.625 17.4234 13.1671 18.9655 15.0625 18.9655C16.9579 18.9655 18.5 17.4234 18.5 15.528C18.5 13.6325 16.9579 12.0905 15.0625 12.0905Z" fill="#131313"/>
<path d="M6.79688 20.2155H2.57812C1.15652 20.2155 0 19.0589 0 17.6373V13.4186C0 11.997 1.15652 10.8405 2.57812 10.8405H6.79688C8.21848 10.8405 9.375 11.997 9.375 13.4186V17.6373C9.375 19.0589 8.21848 20.2155 6.79688 20.2155ZM2.57812 12.0905C1.84578 12.0905 1.25 12.6862 1.25 13.4186V17.6373C1.25 18.3697 1.84578 18.9655 2.57812 18.9655H6.79688C7.52922 18.9655 8.125 18.3697 8.125 17.6373V13.4186C8.125 12.6862 7.52922 12.0905 6.79688 12.0905H2.57812Z" fill="#131313"/>
</svg>
