<svg width="23" height="23" viewBox="0 0 23 23" fill="none" xmlns="http://www.w3.org/2000/svg">
<path d="M21.4378 10.0078C21.0058 9.74088 20.525 9.68653 20.1009 9.72829V9.28267C20.1009 4.72724 16.3731 1 11.8182 1C7.26276 1 3.53551 4.72779 3.53551 9.28267V9.72829C3.1114 9.68649 2.6305 9.74088 2.19858 10.0078C1.40323 10.4994 1 11.535 1 13.0859C1 14.6394 1.40399 15.6806 2.20078 16.1804C2.59657 16.4288 3.05879 16.515 3.53551 16.474V16.9315C3.53551 17.2815 3.81932 17.5653 4.16939 17.5653H6.7049C7.05497 17.5653 7.33878 17.2815 7.33878 16.9315V9.28267C7.33878 8.9326 7.05497 8.64879 6.7049 8.64879H4.83221C5.15372 5.07672 8.16383 2.26776 11.8182 2.26776C15.4725 2.26776 18.4826 5.07672 18.8041 8.64879H16.9315C16.5814 8.64879 16.2976 8.9326 16.2976 9.28267V16.9315C16.2976 17.2815 16.5814 17.5653 16.9315 17.5653H18.8331V18.1992C18.8331 19.2478 17.98 20.1009 16.9315 20.1009H14.8785C14.6169 19.3631 13.9123 18.8331 13.0859 18.8331H11.8182C10.7696 18.8331 9.91655 19.6862 9.91655 20.7347C9.91655 21.7833 10.7696 22.6364 11.8182 22.6364H13.0859C13.9123 22.6364 14.6169 22.1064 14.8785 21.3686H16.9315C18.6791 21.3686 20.1009 19.9468 20.1009 18.1992C20.1009 17.4271 20.1009 16.975 20.1009 16.474C20.5776 16.515 21.0399 16.4287 21.4356 16.1804C22.2324 15.6806 22.6364 14.6394 22.6364 13.0859C22.6364 11.535 22.2331 10.4994 21.4378 10.0078ZM3.53551 15.1981C3.33326 15.2333 3.08047 15.2357 2.8745 15.1065C2.48323 14.861 2.26776 14.1435 2.26776 13.0859C2.26776 12.0386 2.47841 11.3293 2.8609 11.0888C3.06771 10.9588 3.32828 10.9681 3.53551 11.009V15.1981ZM6.07102 9.91655V16.2976H4.80327V9.91655H6.07102ZM13.0859 21.3686H11.8182C11.4687 21.3686 11.1843 21.0843 11.1843 20.7347C11.1843 20.3852 11.4687 20.1009 11.8182 20.1009H13.0859C13.4355 20.1009 13.7198 20.3852 13.7198 20.7347C13.7198 21.0843 13.4355 21.3686 13.0859 21.3686ZM18.8331 16.2976H17.5653V9.91655H18.8331V16.2976ZM20.7664 15.1037C20.5615 15.2344 20.3059 15.2319 20.1009 15.1964V11.009C20.3081 10.9681 20.5686 10.9589 20.7755 11.0889C21.1579 11.3293 21.3686 12.0386 21.3686 13.0859C21.3686 14.1391 21.1547 14.8557 20.7664 15.1037Z" fill="black" stroke="black" stroke-width="0.2"/>
</svg>
