<svg width="22" height="22" viewBox="0 0 22 22" fill="none" xmlns="http://www.w3.org/2000/svg">
<path d="M10.8636 17.123C11.4496 17.123 11.9245 16.648 11.9245 16.0621C11.9245 15.4761 11.4496 15.0012 10.8636 15.0012C10.2777 15.0012 9.80273 15.4761 9.80273 16.0621C9.80273 16.648 10.2777 17.123 10.8636 17.123Z" fill="black"/>
<path d="M10.8636 0C4.85961 0 0 4.8588 0 10.8636C0 16.8677 4.8588 21.7273 10.8636 21.7273C16.8677 21.7273 21.7273 16.8685 21.7273 10.8636C21.7273 4.85961 16.8685 0 10.8636 0ZM10.8636 20.0298C5.79774 20.0298 1.69744 15.9302 1.69744 10.8636C1.69744 5.79774 5.79707 1.69744 10.8636 1.69744C15.9295 1.69744 20.0298 5.79707 20.0298 10.8636C20.0298 15.9295 15.9302 20.0298 10.8636 20.0298Z" fill="black"/>
<path d="M10.8636 5.45303C8.9917 5.45303 7.46875 6.97598 7.46875 8.84792C7.46875 9.31667 7.84872 9.69664 8.31747 9.69664C8.78622 9.69664 9.16619 9.31667 9.16619 8.84792C9.16619 7.91195 9.92767 7.15048 10.8636 7.15048C11.7996 7.15048 12.5611 7.91195 12.5611 8.84792C12.5611 9.78389 11.7996 10.5454 10.8636 10.5454C10.3949 10.5454 10.0149 10.9253 10.0149 11.3941V13.5159C10.0149 13.9846 10.3949 14.3646 10.8636 14.3646C11.3324 14.3646 11.7124 13.9846 11.7124 13.5159V12.1354C13.175 11.7576 14.2585 10.4269 14.2585 8.84792C14.2585 6.97598 12.7356 5.45303 10.8636 5.45303Z" fill="black"/>
</svg>
