<svg width="16" height="20" viewBox="0 0 16 20" fill="none" xmlns="http://www.w3.org/2000/svg">
<path d="M1.3949 19.25H1.39466C1.35117 19.25 1.31652 19.2312 1.29358 19.1982C1.24863 19.1337 1.20435 19.0286 1.20435 18.8639V1.69775C1.20435 1.22727 1.66188 0.75 2.22925 0.75H13.8335C14.3654 0.75 14.7955 1.19274 14.7955 1.69775V18.864C14.7955 19.1152 14.7265 19.2054 14.71 19.2237C14.6944 19.241 14.6773 19.2501 14.6462 19.2501C14.6129 19.2501 14.5119 19.2373 14.3303 19.0823L14.3297 19.0817L9.15606 14.6754C9.15602 14.6754 9.15598 14.6753 9.15594 14.6753C8.84079 14.4062 8.43082 14.2799 8.03896 14.2799C7.64805 14.2799 7.23771 14.4056 6.92264 14.6743C6.92233 14.6745 6.92202 14.6748 6.92171 14.6751L1.73166 19.0816L1.72996 19.0831C1.56208 19.2265 1.44128 19.25 1.3949 19.25Z" stroke="black" stroke-width="1.5"/>
</svg>
