<svg width="19" height="20" viewBox="0 0 19 20" fill="none" xmlns="http://www.w3.org/2000/svg">
<path d="M18.3309 10.8361C18.3348 10.8322 18.3348 10.8322 18.3386 10.8284C18.3501 10.813 18.3617 10.8015 18.3694 10.7861C18.3732 10.7823 18.3732 10.7784 18.3771 10.7746C18.3847 10.7592 18.3963 10.7438 18.404 10.7284C18.404 10.7246 18.4078 10.7207 18.4078 10.7207C18.4155 10.7054 18.4232 10.69 18.4309 10.6707C18.4309 10.6669 18.4309 10.6669 18.4347 10.6631C18.4424 10.6477 18.4463 10.6284 18.454 10.6092C18.454 10.6054 18.454 10.6015 18.4578 10.6015C18.4617 10.5823 18.4693 10.5669 18.4693 10.5477C18.4693 10.54 18.4693 10.5362 18.4732 10.5285C18.477 10.5131 18.477 10.4977 18.4809 10.4823C18.4847 10.4593 18.4847 10.44 18.4847 10.417C18.4847 10.3939 18.4847 10.3747 18.4809 10.3516C18.4809 10.3362 18.477 10.3208 18.4732 10.3054C18.4732 10.2978 18.4732 10.2939 18.4693 10.2862C18.4655 10.267 18.4617 10.2516 18.4578 10.2324C18.4578 10.2285 18.4578 10.2247 18.454 10.2247C18.4501 10.2055 18.4424 10.1901 18.4347 10.1709C18.4347 10.167 18.4347 10.167 18.4309 10.1632C18.4232 10.1478 18.4155 10.1286 18.4078 10.1132C18.4078 10.1093 18.404 10.1055 18.404 10.1055C18.3963 10.0901 18.3886 10.0747 18.3771 10.0594C18.3732 10.0555 18.3732 10.0517 18.3694 10.0478C18.3578 10.0324 18.3501 10.0171 18.3386 10.0055C18.3348 10.0017 18.3348 10.0017 18.3309 9.99783C18.3155 9.98245 18.304 9.96322 18.2848 9.94784L14.4818 6.14876C14.2242 5.89113 13.8051 5.89113 13.5475 6.14876C13.2898 6.40639 13.2898 6.82552 13.5475 7.08315L16.2237 9.75943H5.58399C5.21869 9.75943 4.92261 10.0555 4.92261 10.417C4.92261 10.7823 5.21869 11.0783 5.58399 11.0783H16.2276L13.5705 13.7354C13.3129 13.993 13.3129 14.4122 13.5705 14.6698C13.6974 14.7967 13.8666 14.862 14.0358 14.862C14.205 14.862 14.3742 14.7967 14.5011 14.6698L18.2809 10.8899C18.3002 10.8669 18.3155 10.8515 18.3309 10.8361Z" fill="black" stroke="black" stroke-width="0.3"/>
<path d="M4.57991 2.31891H9.5018C9.86709 2.31891 10.1632 2.02283 10.1632 1.66138C10.1632 1.29608 9.86709 1 9.5018 1H4.57991C2.60731 1 1 2.60731 1 4.57991V16.2579C1 18.2305 2.60731 19.8378 4.57991 19.8378H9.42105C9.78634 19.8378 10.0824 19.5417 10.0824 19.1802C10.0824 18.8149 9.78634 18.5189 9.42105 18.5189H4.57991C3.33405 18.5189 2.31891 17.5037 2.31891 16.2579V4.57991C2.32276 3.33021 3.33405 2.31891 4.57991 2.31891Z" fill="black" stroke="black" stroke-width="0.3"/>
</svg>
