<svg width="22" height="22" viewBox="0 0 22 22" fill="none" xmlns="http://www.w3.org/2000/svg">
<path d="M21.7326 10.5895L20.4424 8.35454V5.77412C20.4424 5.54575 20.3206 5.33469 20.1227 5.22053L17.8878 3.9304L16.5976 1.69549C16.4835 1.49768 16.2724 1.37584 16.044 1.37584H13.4636L11.2287 0.0855894C11.0309 -0.0285298 10.7873 -0.0285298 10.5895 0.0855894L8.35458 1.3758H5.77415C5.54579 1.3758 5.33472 1.49763 5.22056 1.69545L3.93043 3.93036L1.69548 5.22048C1.49767 5.33469 1.37583 5.54571 1.37583 5.77408V8.3545L0.0856214 10.5895C-0.0285405 10.7873 -0.0285405 11.0308 0.0856214 11.2286L1.37579 13.4636V16.044C1.37579 16.2724 1.49762 16.4834 1.69544 16.5976L3.93039 17.8877L5.22056 20.1226C5.33472 20.3204 5.54574 20.4423 5.77415 20.4423H8.35458L10.5895 21.7325C10.6884 21.7895 10.7988 21.8181 10.9091 21.8181C11.0195 21.8181 11.1298 21.7895 11.2287 21.7325L13.4637 20.4423H16.044C16.2724 20.4423 16.4835 20.3204 16.5976 20.1226L17.8878 17.8877L20.1227 16.5976C20.3206 16.4834 20.4424 16.2724 20.4424 16.044V13.4636L21.7326 11.2286C21.8467 11.0308 21.8467 10.7872 21.7326 10.5895V10.5895ZM19.2496 12.9728C19.1935 13.07 19.164 13.1802 19.164 13.2924V15.6749L17.1003 16.8662C17.0031 16.9223 16.9224 17.0031 16.8663 17.1003L15.675 19.1639H13.2923C13.1801 19.1639 13.0699 19.1934 12.9727 19.2495L10.9091 20.4409L8.8454 19.2495C8.74824 19.1935 8.638 19.1639 8.5258 19.1639H6.14319L4.95188 17.1003C4.8958 17.0031 4.81509 16.9223 4.71785 16.8662L2.65416 15.6749V13.2924C2.65416 13.1802 2.62462 13.07 2.56855 12.9728L1.37728 10.9091L2.56863 8.84532C2.62471 8.74817 2.65424 8.63797 2.65424 8.52577V6.1432L4.71793 4.95189C4.81513 4.89577 4.89584 4.81506 4.95197 4.71786L6.14327 2.65421H8.52588C8.63808 2.65421 8.74828 2.62468 8.84549 2.5686L10.9091 1.37725L12.9728 2.5686C13.0699 2.62464 13.1802 2.65421 13.2924 2.65421H15.675L16.8663 4.71786C16.9224 4.81506 17.0031 4.89577 17.1003 4.95189L19.164 6.1432V8.52577C19.164 8.63797 19.1936 8.74817 19.2496 8.84532L20.4409 10.9091L19.2496 12.9728Z" fill="black"/>
<path d="M7.14323 8.21526C6.79022 8.21526 6.50403 8.50145 6.50403 8.85446V10.8513L4.93645 8.49988C4.78018 8.2655 4.48896 8.1611 4.21934 8.24266C3.94973 8.32431 3.76538 8.57275 3.76538 8.85442V12.9624C3.76538 13.3154 4.05157 13.6016 4.40458 13.6016C4.7576 13.6016 5.04379 13.3154 5.04379 12.9624V10.9656L6.61137 13.317C6.76657 13.5497 7.05686 13.6563 7.32847 13.5742C7.59809 13.4925 7.78244 13.2441 7.78244 12.9624V8.85446C7.78244 8.50145 7.49629 8.21526 7.14323 8.21526V8.21526Z" fill="black"/>
<path d="M11.2515 9.49368C11.6045 9.49368 11.8907 9.20749 11.8907 8.85447C11.8907 8.50146 11.6045 8.21527 11.2515 8.21527H9.19755C8.84454 8.21527 8.55835 8.50146 8.55835 8.85447V12.9624C8.55835 13.3154 8.84454 13.6016 9.19755 13.6016H11.2515C11.6045 13.6016 11.8907 13.3154 11.8907 12.9624C11.8907 12.6094 11.6045 12.3232 11.2515 12.3232H9.83676V11.5477H10.5669C10.9199 11.5477 11.2061 11.2615 11.2061 10.9085C11.2061 10.5554 10.9199 10.2692 10.5669 10.2692H9.83676V9.49368H11.2515Z" fill="black"/>
<path d="M17.9108 8.23435C17.5684 8.14865 17.2213 8.35695 17.1357 8.69943L16.6411 10.6779L15.966 8.65235C15.8789 8.39134 15.6347 8.21526 15.3596 8.21526C15.0845 8.21526 14.8402 8.39134 14.7532 8.65235L14.078 10.6779L13.5834 8.69943C13.4978 8.35691 13.1508 8.14857 12.8083 8.23435C12.4658 8.31996 12.2576 8.66696 12.3432 9.00945L13.3702 13.1174C13.4391 13.3931 13.6818 13.5902 13.9658 13.6011C14.2498 13.6113 14.5069 13.4341 14.5967 13.1645L15.3597 10.8758L16.1226 13.1645C16.2098 13.4263 16.4547 13.6017 16.7288 13.6016C16.737 13.6016 16.7453 13.6014 16.7535 13.6011C17.0375 13.5902 17.2802 13.3931 17.3491 13.1174L18.3761 9.00945C18.4615 8.66696 18.2533 8.31996 17.9108 8.23435Z" fill="black"/>
</svg>
