<svg width="8" height="14" viewBox="0 0 8 14" fill="none" xmlns="http://www.w3.org/2000/svg">
<path d="M5.26766 6.30534C5.45186 6.4896 5.55534 6.73947 5.55534 7.00001C5.55534 7.26055 5.45186 7.51042 5.26766 7.69468L0.762632 12.2007C0.583651 12.386 0.484615 12.6342 0.486854 12.8918C0.489092 13.1494 0.592428 13.3959 0.774602 13.5781C0.956776 13.7602 1.20321 13.8636 1.46084 13.8658C1.71846 13.868 1.96666 13.769 2.15197 13.59L6.65405 9.08402C7.20665 8.53125 7.51709 7.78163 7.51709 7.00001C7.51709 6.21839 7.20665 5.46878 6.65405 4.91601L2.14804 0.409995C1.96273 0.231014 1.71453 0.131978 1.45691 0.134216C1.19928 0.136455 0.952844 0.239791 0.77067 0.421964C0.588496 0.604139 0.485162 0.850577 0.482923 1.1082C0.480684 1.36582 0.57972 1.61402 0.758701 1.79933L5.26766 6.30534Z" fill="white"/>
</svg>
