<svg width="21" height="12" viewBox="0 0 21 12" fill="none" xmlns="http://www.w3.org/2000/svg">
<path d="M5.52426 10.1779H3.82438C3.5898 10.1779 3.39941 9.99076 3.39941 9.76014C3.39941 9.52952 3.5898 9.34235 3.82438 9.34235H5.52426C5.75884 9.34235 5.94923 9.52952 5.94923 9.76014C5.94923 9.99076 5.75884 10.1779 5.52426 10.1779Z" fill="url(#paint0_linear_361_2748)"/>
<path d="M19.3358 10.1779H18.2734C18.0388 10.1779 17.8484 9.99077 17.8484 9.76014C17.8484 9.52952 18.0388 9.34235 18.2734 9.34235H18.9831L19.5559 6.34091C19.5483 4.8051 18.2139 3.49323 16.5735 3.49323H13.7831L12.4309 9.34235H14.8736C15.1082 9.34235 15.2986 9.52952 15.2986 9.76014C15.2986 9.99077 15.1082 10.1779 14.8736 10.1779H11.8988C11.7696 10.1779 11.6472 10.1203 11.5665 10.0208C11.4858 9.92225 11.4552 9.79189 11.4841 9.66823L13.0292 2.98352C13.0734 2.79217 13.2451 2.65764 13.444 2.65764H16.5735C18.6822 2.65764 20.3982 4.34469 20.3982 6.41779L19.7531 9.83702C19.7157 10.0351 19.5406 10.1779 19.3358 10.1779Z" fill="url(#paint1_linear_361_2748)"/>
<path d="M16.5735 11.8491C15.4022 11.8491 14.4486 10.9124 14.4486 9.76014C14.4486 8.60787 15.4022 7.67117 16.5735 7.67117C17.7447 7.67117 18.6983 8.60787 18.6983 9.76014C18.6983 10.9124 17.7447 11.8491 16.5735 11.8491ZM16.5735 8.50676C15.8706 8.50676 15.2985 9.06911 15.2985 9.76014C15.2985 10.4512 15.8706 11.0135 16.5735 11.0135C17.2764 11.0135 17.8484 10.4512 17.8484 9.76014C17.8484 9.06911 17.2764 8.50676 16.5735 8.50676Z" fill="url(#paint2_linear_361_2748)"/>
<path d="M7.22421 11.8491C6.053 11.8491 5.09937 10.9124 5.09937 9.76014C5.09937 8.60787 6.053 7.67117 7.22421 7.67117C8.39543 7.67117 9.34906 8.60787 9.34906 9.76014C9.34906 10.9124 8.39543 11.8491 7.22421 11.8491ZM7.22421 8.50676C6.52131 8.50676 5.9493 9.06911 5.9493 9.76014C5.9493 10.4512 6.52131 11.0135 7.22421 11.0135C7.92711 11.0135 8.49912 10.4512 8.49912 9.76014C8.49912 9.06911 7.92711 8.50676 7.22421 8.50676Z" fill="url(#paint3_linear_361_2748)"/>
<path d="M5.52431 2.65764H2.12455C1.88997 2.65764 1.69958 2.47047 1.69958 2.23985C1.69958 2.00922 1.88997 1.82205 2.12455 1.82205H5.52431C5.75889 1.82205 5.94928 2.00922 5.94928 2.23985C5.94928 2.47047 5.75889 2.65764 5.52431 2.65764Z" fill="url(#paint4_linear_361_2748)"/>
<path d="M5.52439 5.1644H1.2747C1.04012 5.1644 0.849731 4.97723 0.849731 4.74661C0.849731 4.51598 1.04012 4.32881 1.2747 4.32881H5.52439C5.75898 4.32881 5.94936 4.51598 5.94936 4.74661C5.94936 4.97723 5.75898 5.1644 5.52439 5.1644Z" fill="url(#paint5_linear_361_2748)"/>
<path d="M5.5246 7.67118H0.424969C0.190386 7.67118 0 7.484 0 7.25338C0 7.02276 0.190386 6.83559 0.424969 6.83559H5.5246C5.75918 6.83559 5.94957 7.02276 5.94957 7.25338C5.94957 7.484 5.75918 7.67118 5.5246 7.67118Z" fill="url(#paint6_linear_361_2748)"/>
<path d="M11.8988 10.1779H8.92401C8.68943 10.1779 8.49904 9.99077 8.49904 9.76015C8.49904 9.52953 8.68943 9.34235 8.92401 9.34235H11.5597L13.4907 0.986468H3.82438C3.5898 0.986468 3.39941 0.799296 3.39941 0.568673C3.39941 0.338051 3.5898 0.150879 3.82438 0.150879H14.0236C14.1528 0.150879 14.2752 0.208535 14.356 0.30797C14.4367 0.406569 14.4673 0.536921 14.4384 0.660588L12.3136 9.85206C12.2694 10.0434 12.0968 10.1779 11.8988 10.1779Z" fill="url(#paint7_linear_361_2748)"/>
<defs>
<linearGradient id="paint0_linear_361_2748" x1="5.95109" y1="9.75914" x2="3.40313" y2="9.75914" gradientUnits="userSpaceOnUse">
<stop stop-color="#000000"/>
<stop offset="1" stop-color="#000000"/>
</linearGradient>
<linearGradient id="paint1_linear_361_2748" x1="20.4047" y1="6.40875" x2="11.4864" y2="6.40875" gradientUnits="userSpaceOnUse">
<stop stop-color="#000000"/>
<stop offset="1" stop-color="#000000"/>
</linearGradient>
<linearGradient id="paint2_linear_361_2748" x1="18.7014" y1="9.75513" x2="14.4548" y2="9.75513" gradientUnits="userSpaceOnUse">
<stop stop-color="#000000"/>
<stop offset="1" stop-color="#000000"/>
</linearGradient>
<linearGradient id="paint3_linear_361_2748" x1="9.35217" y1="9.75513" x2="5.10555" y2="9.75513" gradientUnits="userSpaceOnUse">
<stop stop-color="#000000"/>
<stop offset="1" stop-color="#000000"/>
</linearGradient>
<linearGradient id="paint4_linear_361_2748" x1="5.95239" y1="2.23884" x2="1.70577" y2="2.23884" gradientUnits="userSpaceOnUse">
<stop stop-color="#000000"/>
<stop offset="1" stop-color="#000000"/>
</linearGradient>
<linearGradient id="paint5_linear_361_2748" x1="5.95309" y1="4.7456" x2="0.857155" y2="4.7456" gradientUnits="userSpaceOnUse">
<stop stop-color="#000000"/>
<stop offset="1" stop-color="#000000"/>
</linearGradient>
<linearGradient id="paint6_linear_361_2748" x1="5.95392" y1="7.25238" x2="0.00866139" y2="7.25238" gradientUnits="userSpaceOnUse">
<stop stop-color="#000000"/>
<stop offset="1" stop-color="#000000"/>
</linearGradient>
<linearGradient id="paint7_linear_361_2748" x1="14.4572" y1="5.15236" x2="3.4155" y2="5.15236" gradientUnits="userSpaceOnUse">
<stop stop-color="#000000"/>
<stop offset="1" stop-color="#000000"/>
</linearGradient>
</defs>
</svg>
