<svg width="100" height="25" viewBox="0 0 100 25" fill="none" xmlns="http://www.w3.org/2000/svg">
<path d="M14.3913 1.19694C15.4616 1.91049 15.7391 4.36828 15.422 6.07288C15.0256 8.05497 14.1534 9.00637 13.1228 9.75956C12.8453 14.5562 12.7263 19.9079 13.4399 19.8286C14.6688 19.67 16.6112 13.3273 16.8887 12.0191C16.9284 11.9002 17.0473 11.7813 17.2455 11.8606C17.4834 11.9399 17.4833 12.0191 17.4833 12.1381C17.4041 13.0102 15.2634 20.8196 12.9245 20.78C10.11 20.7403 9.59464 16.4987 9.71356 11.5434C8.72252 11.8209 7.3747 12.0191 5.94759 12.2174C5.55117 15.8248 4.59977 19.1943 2.22126 19.4718C0.714872 19.6304 0.635591 17.7672 1.86449 17.8861C2.22126 17.9258 2.45911 15.5869 2.61768 12.7723C1.58699 13.0102 0.754516 13.248 0.477024 13.6048C0.318457 13.922 -0.196887 13.5652 0.0806059 13.2877C0.39774 12.812 1.38878 12.4948 2.69696 12.257C2.89517 8.41174 2.93481 3.85294 2.93481 2.66369C2.93481 0.959089 6.02687 1.19694 6.02687 2.62404C6.02687 3.13938 6.38365 7.53963 6.02687 11.702C7.45398 11.5038 8.84144 11.3056 9.7532 11.0281C9.83248 8.3721 10.11 3.65473 10.546 2.38619C10.9425 1.35551 12.0128 0.760881 13.0435 0.800523C13.5192 0.760881 13.9949 0.919448 14.3913 1.19694ZM13.8759 2.34655C13.5588 2.86189 13.2417 7.8964 13.202 8.96673C13.9552 8.21353 14.5895 7.22249 14.867 5.7161C15.0256 4.56649 14.6291 2.1087 14.1138 2.18799C14.0345 2.18799 13.9552 2.22762 13.8759 2.34655Z" fill="white"/>
<path d="M22.3989 8.80804C24.2224 9.32338 24.817 12.9308 24.0242 15.7454C25.2531 15.1507 26.482 13.4461 26.8784 11.9397C26.9577 11.7019 27.473 11.7415 27.4334 12.0983C27.1955 13.8029 25.5306 16.0228 23.7863 16.4985C23.1917 17.9256 22.2403 19.0356 20.8529 19.2735C15.858 20.2249 15.4219 14.1597 17.3247 10.5126C17.8004 9.56124 19.1879 9.48195 19.8618 9.91801C20.1393 9.20446 20.6943 8.68912 21.4871 8.64948C21.7646 8.68912 22.0421 8.68911 22.3989 8.80804ZM20.8529 18.7978C21.8835 18.5599 22.6367 17.6878 23.1521 16.5778C22.8746 16.5778 22.5971 16.4985 22.3196 16.3796C21.0511 15.8246 20.0997 14.7147 19.7429 13.2479C19.7032 13.2083 19.7032 13.2083 19.7032 13.2083C19.3861 15.9039 19.7429 19.1149 20.8529 18.7978ZM20.5754 12.7722C20.9321 14.239 21.6853 15.3886 22.6764 15.8246C22.9142 15.9039 23.1521 15.9436 23.3899 15.9039C24.3017 13.2479 23.8656 9.7198 21.9232 9.36302C21.7646 9.32338 21.6457 9.32338 21.4871 9.32338C20.5357 9.40267 19.9807 10.3937 20.5754 12.7722Z" fill="white"/>
<path d="M30.0499 10.4334C30.0102 11.2658 29.931 12.7722 29.8913 14.4768C30.4067 12.6929 31.2391 10.473 32.4284 9.71981C33.5384 9.0459 35.7187 9.2441 36.1151 11.2658C36.234 12.019 36.1944 13.2479 35.9565 14.5165C36.789 13.9615 37.5422 13.0497 38.0179 11.5433C38.0575 11.028 38.1368 10.6316 38.2557 10.473C38.9693 9.20446 41.4271 9.91802 41.3081 11.4244C41.2685 12.0983 41.2289 13.0894 41.1496 14.2786C41.6253 12.7326 42.4181 10.9883 43.4884 10.3144C44.5984 9.60088 46.7787 9.83873 47.1751 11.8605C47.2941 12.6533 47.2544 13.9615 47.0166 15.23C48.4437 14.9525 49.9897 14.1993 50.5051 11.8208C50.5447 11.6623 51.179 11.6623 51.0997 11.8605C50.5051 15.0318 48.4437 15.785 46.858 16.0228C46.2237 18.3221 44.8759 20.3042 42.5767 18.9167C41.4271 18.2428 41.9028 16.4589 43.9245 15.7057C44.3606 13.4461 44.5191 10.3937 43.9642 10.6316C42.8542 11.028 41.5064 15.1507 41.0703 16.5382C40.991 19.3131 40.8721 22.3259 40.9117 23.6737C40.9117 24.1891 40.436 24.7044 39.6432 24.7837C38.8107 24.863 38.0972 24.5062 38.0575 23.753C37.8197 20.9781 37.78 16.5778 37.899 13.5651C37.2647 14.675 36.4719 15.3489 35.7187 15.7057C35.0448 18.1239 33.6969 20.2645 31.3977 18.8771C30.2481 18.2031 30.7238 16.4193 32.7059 15.6661C33.2212 13.2083 33.4194 9.79909 32.8644 9.9973C31.6356 10.4334 30.0895 15.7454 29.812 16.7364C29.7327 19.1149 29.6931 21.4934 29.6931 22.643C29.7327 23.1584 29.2174 23.6737 28.4642 23.753C27.6317 23.8323 26.9182 23.4755 26.8785 22.7223C26.5218 18.5203 26.5218 10.3937 27.0371 9.48195C27.3146 9.00625 27.8299 8.80804 28.3056 8.80804C29.1778 8.88733 30.1292 9.5216 30.0499 10.4334ZM31.7545 18.0446C32.032 18.0049 32.2698 17.3707 32.5077 16.4985C31.1995 17.1328 30.922 18.1635 31.7545 18.0446ZM42.9335 18.0446C43.211 18.0049 43.4488 17.3707 43.7263 16.4985C42.3388 17.1328 42.101 18.2031 42.9335 18.0446Z" fill="white"/>
<path d="M56.3716 8.84752C57.1644 9.87821 55.4202 12.891 53.2002 13.6838C53.1209 15.4677 53.7156 17.4101 54.3102 17.8066C56.0544 19.0355 58.3933 13.446 58.7501 11.7414C58.7897 11.6621 58.9483 11.5432 59.1069 11.5432C59.3844 11.5828 59.3447 11.781 59.3447 11.781C59.3447 11.781 57.9573 19.0751 54.2706 19.0751C53.0417 19.0751 52.1299 18.5994 51.4956 17.8462C49.2361 15.2695 50.0685 9.04573 53.2399 8.17361C53.3984 8.13397 53.7949 8.09433 54.2309 8.05469C54.9445 8.05469 55.8562 8.21325 56.3716 8.84752ZM53.2795 12.6531C53.2399 12.8117 53.2002 13.0099 53.2002 13.1685C55.6184 12.0189 56.3716 9.40251 55.8562 9.04573C55.777 8.96645 55.658 8.96644 55.5391 8.96644C54.7463 8.96644 53.6759 10.7503 53.2795 12.6531Z" fill="white"/>
<path d="M83.566 2.78276C84.8346 5.31983 83.8435 18.5998 83.7246 19.5909C83.4868 21.6919 80.0379 21.3747 80.2361 19.6305C80.6326 15.8645 81.5047 1.95028 79.9983 2.98097C79.2054 3.49631 78.6108 6.03338 79.1658 7.10371C79.7604 8.25332 77.5405 9.00651 77.2234 7.34156C76.5891 3.65488 79.2451 1.79171 81.3857 1.75207C82.3768 1.67279 83.2093 2.06921 83.566 2.78276Z" fill="white"/>
<path d="M95.8943 9.5218C95.9736 11.5039 94.3879 20.2251 95.6564 20.0269C96.8853 19.8287 98.3917 12.5346 98.5899 11.9796C98.7485 11.5832 99.2639 11.7417 99.1449 12.2571C99.1053 12.4553 97.5989 20.4233 95.4186 20.899C89.0363 22.3261 93.5554 8.45147 92.4851 8.64968C91.5733 8.80825 90.2652 13.0499 88.8777 17.3312C88.6002 18.4808 85.5082 18.4016 85.5874 16.8159C85.7064 13.7635 85.746 12.4553 85.746 10.9093C85.7064 9.44251 88.4813 9.20466 88.8777 10.7507C89.1552 11.821 89.1552 13.4067 89.0759 14.7942C89.8687 12.1778 91.1373 8.80825 92.1283 8.25326C92.4058 8.09469 92.8022 8.0154 93.2383 7.97576C94.4275 7.89648 95.8547 8.41183 95.8943 9.5218Z" fill="white"/>
<path d="M72.2681 16.9742C72.1095 16.6571 71.9113 16.3399 71.7131 16.1021C71.0788 15.3489 70.286 14.9525 69.3743 14.7146C68.5418 14.5164 67.6697 14.5164 66.7975 14.5561C65.3308 14.675 63.9037 14.9921 62.4766 15.3489C62.0802 15.4282 61.7234 15.5471 61.327 15.666C61.1288 15.7057 60.9305 15.5471 60.9702 15.3489C61.0098 15.23 61.0495 15.111 61.1288 15.0318C61.2873 14.8732 61.4459 14.7543 61.6441 14.675C62.2784 14.3182 62.9523 14.12 63.6262 13.9218C64.6172 13.6443 65.6479 13.4857 66.6786 13.3668C67.6697 13.2479 68.7003 13.2082 69.6914 13.3272C70.0482 13.3668 70.4446 13.4064 70.8014 13.4857C70.9203 13.4857 70.9599 13.4857 70.9996 13.3668C71.2374 12.5343 71.3167 11.7018 71.396 10.8297C71.4753 9.83868 71.5545 8.84764 71.6338 7.85659C71.7131 6.98448 71.8717 6.15199 72.1888 5.31952C72.7042 4.05098 73.6556 3.33743 75.0034 3.13922C75.2809 3.09958 75.5584 3.0203 75.8359 2.98065C75.9944 2.94101 76.153 2.98065 76.3116 3.02029C76.6683 3.09958 76.8665 3.41671 76.8269 3.77349C76.8269 3.9717 76.7476 4.16991 76.6287 4.32847C76.4305 4.60597 76.1134 4.68525 75.8359 4.52668C75.6773 4.4474 75.5584 4.32847 75.3998 4.20955C75.3602 4.1699 75.3205 4.16991 75.2412 4.16991C74.2105 4.24919 73.5763 4.80417 73.1799 5.71593C72.942 6.27092 72.8231 6.86555 72.7438 7.46018C72.5852 8.64943 72.6249 9.87832 72.5852 11.1072C72.5456 11.9793 72.5456 12.8515 72.3474 13.6839C72.3474 13.7236 72.3474 13.7632 72.387 13.7632C72.8627 14.0011 73.0609 14.3975 73.1799 14.8335C73.4574 15.8246 73.497 16.776 73.1006 17.7274C72.9817 18.0049 72.9024 18.2427 72.942 18.5599C73.0213 19.2338 72.4663 19.7888 71.7528 19.7888C71.1581 19.7888 70.6824 19.5113 70.2464 19.1149C69.9292 18.7581 69.6914 18.3617 69.6517 17.886C69.6517 17.6481 69.6914 17.4499 69.7707 17.2517C69.8103 17.2121 69.8103 17.1724 69.8499 17.0931C67.9075 16.6571 65.9254 16.5381 63.9433 16.8949C64.0226 16.9346 64.0623 16.9742 64.0623 17.0138C64.538 17.3706 64.8947 17.8067 65.0137 18.4013C65.1326 19.1149 64.7758 19.6302 64.1415 19.7888C63.8244 19.8681 63.5073 19.8284 63.2298 19.7095C62.4766 19.3924 61.9612 18.877 61.8027 18.0842C61.6441 17.4103 61.9612 16.8949 62.5559 16.6571C62.7937 16.5778 62.9919 16.4192 63.2298 16.3399C63.9433 16.0624 64.6569 15.9039 65.4101 15.785C66.2822 15.666 67.1543 15.6264 68.0264 15.7057C69.1364 15.7849 70.2067 15.9435 71.1978 16.3399C71.5942 16.4985 71.951 16.6967 72.2681 16.9742ZM70.8806 18.0842C70.8806 18.4409 71.1978 18.8374 71.5546 18.9166C71.8717 18.9959 72.0699 18.7977 72.1095 18.4806C72.1095 18.0842 71.7924 17.6878 71.396 17.6481C71.0789 17.6085 70.8806 17.8067 70.8806 18.0842ZM64.2208 18.4806C64.2208 18.1635 63.9433 17.767 63.6262 17.6878C63.2298 17.5688 62.9523 17.8067 63.0316 18.2031C63.0712 18.5202 63.3883 18.8374 63.7055 18.9166C63.983 18.9959 64.2208 18.7977 64.2208 18.4806Z" fill="url(#paint0_linear_361_2615)"/>
<path d="M71.0787 6.66767C69.6912 6.62803 68.3038 6.54874 66.8767 6.46946C66.9559 6.70731 67.0352 6.90552 67.0749 7.10372C67.1542 7.38122 67.2731 7.65871 67.3524 7.97584C67.392 8.05513 67.4317 8.09477 67.5109 8.09477C68.3831 8.13441 69.2155 8.21369 70.0877 8.37226C70.1273 8.37226 70.1669 8.37226 70.2066 8.4119C69.2948 8.4119 68.4227 8.37226 67.5109 8.49119C67.5109 8.57047 67.5506 8.64975 67.5506 8.6894C67.6299 9.00653 67.6695 9.28402 67.7488 9.60116C67.7488 9.68044 67.7884 9.75972 67.9074 9.75972C68.4623 9.83901 69.0173 10.0372 69.5723 10.2751C69.612 10.2751 69.6119 10.3147 69.6516 10.3543C69.057 10.3543 68.4623 10.3543 67.8677 10.3543C67.8677 10.7111 67.8677 11.0283 67.8677 11.385C67.8281 11.2265 67.7884 11.0679 67.7884 10.9093C67.7488 10.7508 67.7091 10.5922 67.6695 10.4336C67.6695 10.3544 67.6299 10.3543 67.5506 10.3543C67.1542 10.394 66.7577 10.4336 66.3613 10.4733C66.2424 10.4733 66.0838 10.5129 65.9253 10.5129C66.0442 11.1075 66.0838 11.6625 66.0838 12.2572C66.0838 12.2175 66.0442 12.1779 66.0442 12.1779C65.846 11.7022 65.6874 11.1868 65.4892 10.7111C65.4496 10.6318 65.4496 10.6318 65.3703 10.6318C64.8946 10.7508 64.4585 10.8697 63.9828 10.9886C63.9828 10.9886 63.9432 10.9886 63.9432 11.0283C64.181 11.7815 64.4189 12.5347 64.6567 13.2878H64.6171C64.5774 13.2482 64.5774 13.2086 64.5378 13.1689C64.181 12.5346 63.8243 11.9004 63.4675 11.3058C63.4278 11.2265 63.3486 11.1868 63.2693 11.2265C62.6746 11.4643 62.08 11.7418 61.4854 12.0986C61.3665 12.1779 61.3665 12.2175 61.4457 12.2968C61.6836 12.6932 61.8818 13.0896 62.1197 13.4861C62.1593 13.5257 62.1593 13.5653 62.1593 13.605C62.1593 13.605 62.1593 13.605 62.1197 13.605C61.8818 13.4068 61.644 13.1689 61.4061 12.9707C60.5736 12.2175 59.8204 11.385 59.1465 10.4733C58.7501 9.91829 58.3933 9.36331 58.1555 8.6894C58.0365 8.33262 57.9573 7.97584 58.0366 7.61907C58.1158 7.14337 58.3537 6.78659 58.7105 6.5091C59.1862 6.15232 59.7411 5.99376 60.3358 5.87483C61.3268 5.67662 62.3575 5.63698 63.3485 5.71626C63.9828 5.7559 64.6171 5.79555 65.291 5.83519C66.0838 5.91447 66.9163 6.0334 67.7091 6.15232C68.7002 6.31089 69.6516 6.46946 70.6426 6.66767C70.8408 6.62803 70.9598 6.62803 71.0787 6.66767ZM66.7577 8.05513C66.7577 8.01549 66.7577 8.01548 66.7181 7.97584C66.4406 7.50014 66.2028 7.02444 65.9253 6.54874C65.9253 6.5091 65.846 6.5091 65.8063 6.5091C65.3703 6.5091 64.8946 6.5091 64.4585 6.5091C64.3396 6.5091 64.2207 6.5091 64.0621 6.5091C64.1018 6.54874 64.1017 6.58838 64.1017 6.58838C64.4189 7.10372 64.736 7.57943 65.0532 8.09477C65.0928 8.17405 65.1324 8.17405 65.2117 8.17405C65.6874 8.13441 66.1631 8.13441 66.5992 8.13441C66.6388 8.09477 66.6785 8.05513 66.7577 8.05513ZM64.2207 8.2137C64.181 8.17405 64.181 8.13441 64.1414 8.09477C63.745 7.57943 63.3882 7.06408 62.9918 6.58838C62.9521 6.54874 62.9125 6.54874 62.8332 6.54874C62.635 6.54874 62.3971 6.58838 62.1989 6.62802C61.9611 6.66767 61.7629 6.70731 61.525 6.70731C61.5647 6.78659 61.644 6.82623 61.6836 6.90552C62.0007 7.38122 62.3575 7.85692 62.6746 8.37226C62.7143 8.45154 62.7539 8.49119 62.8729 8.45155C63.1503 8.41191 63.3882 8.37226 63.6657 8.33262C63.8243 8.29298 64.0225 8.25334 64.2207 8.2137ZM62.9521 10.3543C62.7539 10.0769 62.5161 9.79937 62.3179 9.52188C62.2386 9.44259 62.1989 9.40295 62.08 9.44259C61.525 9.60116 61.0097 9.75973 60.4547 9.91829C60.3754 9.95793 60.2961 9.95793 60.2169 9.99758C60.4547 10.394 60.6529 10.7904 60.8511 11.1868C61.5647 10.949 62.2386 10.6715 62.9521 10.3543ZM61.644 8.6894C61.4457 8.45154 61.2475 8.25334 61.0493 8.01549C60.8115 7.73799 60.534 7.50015 60.2961 7.26229C60.2565 7.22265 60.2168 7.22265 60.1772 7.22265C59.9394 7.38122 59.7412 7.61907 59.7015 7.9362C59.6222 8.33262 59.7412 8.72904 59.8601 9.12546C59.8601 9.20474 59.8997 9.20474 59.979 9.1651C60.1376 9.12545 60.2565 9.08582 60.4151 9.04618C60.8115 8.92725 61.2079 8.80832 61.644 8.6894ZM67.4317 9.6408C67.4317 9.60116 67.4317 9.60116 67.4317 9.60116C67.2731 9.24438 67.1542 8.92724 66.9956 8.57047C66.9956 8.53083 66.9163 8.53083 66.8767 8.53083C66.6388 8.57047 66.4406 8.57047 66.2028 8.61011C65.9253 8.64976 65.6478 8.6894 65.4099 8.72904C65.4099 8.76868 65.4099 8.76868 65.4099 8.76868C65.5289 9.04617 65.6081 9.36331 65.7271 9.6408C65.7271 9.68044 65.8063 9.68044 65.8063 9.68044C66.1235 9.68044 66.4406 9.6408 66.7577 9.6408C66.9956 9.6408 67.1938 9.6408 67.4317 9.6408ZM63.1503 9.20474C63.3089 9.52187 63.4278 9.79937 63.5468 10.0769C63.5864 10.1561 63.626 10.1561 63.7053 10.1561C64.0225 10.0769 64.3792 9.99758 64.6964 9.91829C64.8153 9.87865 64.9342 9.87865 65.0928 9.83901C64.9342 9.56152 64.7757 9.28402 64.6567 9.00653C64.6171 8.92725 64.5378 8.88761 64.4585 8.92725C64.2207 8.96689 64.0225 9.00653 63.7846 9.08581C63.5864 9.08581 63.3882 9.12546 63.1503 9.20474Z" fill="url(#paint1_linear_361_2615)"/>
<defs>
<linearGradient id="paint0_linear_361_2615" x1="76.8435" y1="11.3769" x2="60.9882" y2="11.3769" gradientUnits="userSpaceOnUse">
<stop stop-color="#E5345B"/>
<stop offset="1" stop-color="#CF1F3F"/>
</linearGradient>
<linearGradient id="paint1_linear_361_2615" x1="71.0937" y1="9.60116" x2="58.1016" y2="9.60116" gradientUnits="userSpaceOnUse">
<stop stop-color="#E5345B"/>
<stop offset="1" stop-color="#CF1F3F"/>
</linearGradient>
</defs>
</svg>
