<svg width="153" height="153" viewBox="0 0 153 153" fill="none" xmlns="http://www.w3.org/2000/svg">
<g filter="url(#filter0_d_1_1721)">
<circle cx="76.5" cy="76.5" r="56.5" fill="url(#paint0_linear_1_1721)" shape-rendering="crispEdges"/>
<circle cx="76.5" cy="76.5" r="54.5" stroke="white" stroke-width="4" shape-rendering="crispEdges"/>
</g>
<path d="M76.9995 61.4713C68.9884 61.4713 62.4708 67.9889 62.4708 76C62.4708 84.0111 68.9884 90.5287 76.9995 90.5287C85.0106 90.5287 91.5282 84.0111 91.5282 76C91.5282 67.9889 85.0106 61.4713 76.9995 61.4713ZM74.445 82.5745L68.8272 76.9567L70.7405 75.0434L74.4837 78.7864L83.2782 70.3436L85.1522 72.2957L74.445 82.5745Z" fill="white"/>
<path d="M100 76C100 74.0183 98.0367 72.321 97.5482 70.4933C97.0427 68.6023 97.8796 66.1536 96.9216 64.4978C95.9498 62.8183 93.4017 62.3245 92.0386 60.9614C90.6755 59.5984 90.1817 57.0502 88.5022 56.0784C86.8464 55.1204 84.3977 55.9572 82.5067 55.4517C80.6789 54.9633 78.9817 53 77 53C75.0183 53 73.3211 54.9633 71.4933 55.4518C69.6023 55.9573 67.1536 55.1204 65.4979 56.0784C63.8184 57.0502 63.3246 59.5983 61.9615 60.9614C60.5985 62.3245 58.0503 62.8183 57.0785 64.4978C56.1205 66.1536 56.9573 68.6023 56.4519 70.4933C55.9633 72.3211 54 74.0183 54 76C54 77.9817 55.9633 79.6789 56.4518 81.5067C56.9573 83.3977 56.1204 85.8464 57.0784 87.5021C58.0502 89.1816 60.5983 89.6754 61.9614 91.0385C63.3245 92.4015 63.8183 94.9497 65.4978 95.9215C67.1536 96.8795 69.6023 96.0427 71.4933 96.5482C73.3211 97.0367 75.0183 99 77 99C78.9817 99 80.6789 97.0367 82.5067 96.5482C84.3977 96.0427 86.8464 96.8796 88.5021 95.9216C90.1816 94.9498 90.6754 92.4017 92.0385 91.0386C93.4015 89.6755 95.9497 89.1817 96.9215 87.5022C97.8795 85.8464 97.0427 83.3977 97.5481 81.5067C98.0367 79.6789 100 77.9817 100 76ZM77 93.2346C67.4969 93.2346 59.7654 85.5032 59.7654 76C59.7654 66.4969 67.4969 58.7654 77 58.7654C86.5032 58.7654 94.2346 66.4969 94.2346 76C94.2346 85.5032 86.5032 93.2346 77 93.2346Z" fill="white"/>
<defs>
<filter id="filter0_d_1_1721" x="0" y="0" width="153" height="153" filterUnits="userSpaceOnUse" color-interpolation-filters="sRGB">
<feFlood flood-opacity="0" result="BackgroundImageFix"/>
<feColorMatrix in="SourceAlpha" type="matrix" values="0 0 0 0 0 0 0 0 0 0 0 0 0 0 0 0 0 0 127 0" result="hardAlpha"/>
<feOffset/>
<feGaussianBlur stdDeviation="10"/>
<feComposite in2="hardAlpha" operator="out"/>
<feColorMatrix type="matrix" values="0 0 0 0 0 0 0 0 0 0 0 0 0 0 0 0 0 0 0.24 0"/>
<feBlend mode="normal" in2="BackgroundImageFix" result="effect1_dropShadow_1_1721"/>
<feBlend mode="normal" in="SourceGraphic" in2="effect1_dropShadow_1_1721" result="shape"/>
</filter>
<linearGradient id="paint0_linear_1_1721" x1="55.5" y1="32" x2="100" y2="125.5" gradientUnits="userSpaceOnUse">
<stop stop-color="#1C1C1C"/>
<stop offset="1" stop-color="#464646" stop-opacity="0.92"/>
</linearGradient>
</defs>
</svg>
