<svg 
 width="1024.000000pt" height="1024.000000pt" viewBox="0 0 1024.000000 1024.000000"
 preserveAspectRatio="xMidYMid meet">
<metadata>
Created by potrace 1.11, written by Peter Selinger 2001-2013
</metadata>
<g transform="translate(0.000000,1024.000000) scale(0.100000,-0.100000)"
fill="#000000" stroke="none">
<path d="M6200 9734 c-685 -250 -1296 -472 -1357 -495 l-113 -41 0 -2222 0
-2223 -22 -10 c-13 -5 -236 -86 -495 -179 l-473 -169 0 -1242 0 -1242 68 24
c37 12 256 91 486 174 230 83 423 151 427 151 5 0 9 -497 9 -1105 l0 -1105
1360 0 1360 0 0 1604 0 1603 328 119 c180 65 795 287 1367 494 l1040 376 3
1243 c2 1180 1 1242 -15 1237 -10 -3 -625 -226 -1368 -494 l-1350 -488 -5
2222 -5 2222 -1245 -454z"/>
<path d="M1402 7982 l-1352 -496 0 -1238 c0 -913 3 -1238 11 -1238 7 0 616
221 1355 492 l1344 491 0 1244 c0 684 -1 1243 -2 1242 -2 0 -612 -224 -1356
-497z"/>
<path d="M1445 3550 c-721 -264 -1329 -487 -1352 -496 l-43 -16 0 -1494 0
-1494 1355 0 1355 0 0 1990 c0 1095 -1 1990 -2 1990 -2 -1 -592 -216 -1313
-480z"/>
</g>
</svg>
